<?xml version="1.0" standalone="no"?>
<!DOCTYPE svg PUBLIC "-//W3C//DTD SVG 20010904//EN"
 "http://www.w3.org/TR/2001/REC-SVG-20010904/DTD/svg10.dtd">
<svg version="1.0" xmlns="http://www.w3.org/2000/svg"
 width="284.000000pt" height="177.000000pt" viewBox="0 0 284.000000 177.000000"
 preserveAspectRatio="xMidYMid meet">

<g transform="translate(0.000000,177.000000) scale(0.100000,-0.100000)"
fill="#000000" stroke="none">
<path d="M131 1272 c-46 -22 -99 -89 -116 -146 -20 -66 -6 -119 37 -146 40
-24 52 -17 33 20 -30 58 -8 174 41 220 l24 23 0 -226 c0 -126 -5 -249 -11
-277 -6 -28 -9 -54 -6 -57 12 -11 48 20 67 57 18 36 20 59 20 284 l0 244 -29
10 c-21 8 -36 6 -60 -6z"/>
<path d="M926 1264 c-3 -9 -6 -33 -6 -54 0 -39 0 -39 -42 -42 -36 -2 -44 -7
-46 -25 -3 -21 1 -23 43 -23 l47 0 -4 -103 c-3 -91 -6 -108 -28 -140 -25 -37
-44 -50 -34 -23 9 24 -23 73 -71 107 -25 18 -45 33 -45 34 0 0 9 18 20 39 36
71 -14 104 -71 47 -30 -30 -36 -59 -20 -90 7 -13 -1 -36 -35 -94 -45 -77 -72
-97 -76 -54 -1 12 -2 68 -3 125 0 101 -1 103 -27 120 -53 32 -98 -3 -143 -113
l-25 -60 0 87 c0 85 -1 88 -25 94 -14 4 -28 4 -30 2 -3 -2 -8 -69 -11 -149 -7
-169 0 -199 46 -199 25 0 30 4 30 25 0 60 84 265 108 265 5 0 7 -53 5 -117 -4
-132 5 -166 48 -171 37 -4 71 28 125 116 25 42 48 79 50 81 8 8 62 -51 74 -79
9 -21 9 -34 0 -49 -12 -24 -34 -26 -70 -6 -22 12 -27 11 -42 -2 -43 -39 -4
-67 86 -61 70 4 101 22 139 81 l25 37 6 -34 c18 -97 106 -116 156 -34 l18 30
16 -31 c19 -35 44 -51 81 -51 34 0 81 25 89 47 6 15 11 13 32 -15 31 -40 74
-43 108 -9 l23 23 27 -23 c37 -31 86 -30 125 3 60 50 32 -1 -39 -71 -74 -73
-96 -118 -80 -160 23 -60 112 -75 160 -27 36 36 50 87 50 184 0 74 2 80 37
125 20 27 51 81 70 121 30 65 36 72 62 72 28 0 29 -1 20 -37 -12 -52 -11 -126
2 -160 27 -73 98 -98 137 -48 l19 24 23 -24 c35 -37 92 -35 132 5 34 34 38 36
38 16 0 -21 39 -46 71 -46 18 0 35 9 48 25 l20 26 3 -23 c2 -18 10 -24 39 -26
l36 -3 7 76 c7 78 40 185 57 185 5 0 9 -30 10 -67 0 -38 6 -88 12 -113 11 -40
15 -45 43 -48 31 -3 31 -3 37 55 4 32 17 87 29 123 l23 65 6 -100 c7 -129 30
-174 91 -175 31 0 63 36 73 81 11 50 -11 59 -26 11 -21 -73 -57 -63 -70 19 -5
30 -6 88 -3 130 7 75 6 77 -19 94 -49 32 -69 18 -96 -65 -38 -120 -40 -121
-40 -34 -1 87 -15 114 -58 114 -27 0 -37 -14 -62 -85 l-20 -60 -1 66 c0 70 -6
79 -51 79 -18 0 -19 -8 -19 -112 0 -120 -22 -198 -54 -198 -28 0 -36 38 -36
168 l0 130 -27 7 c-19 4 -31 2 -38 -8 -9 -13 -14 -12 -34 4 -30 25 -62 24 -95
-2 -45 -35 -59 -76 -65 -183 -5 -79 -10 -101 -23 -110 -46 -28 -68 59 -48 181
12 69 12 77 -4 88 -12 9 -28 10 -54 4 -52 -12 -52 -12 -52 15 0 46 -63 45 -81
-2 -7 -18 -6 -31 5 -47 13 -19 12 -28 -8 -78 -13 -31 -33 -71 -44 -89 l-22
-33 0 126 0 127 -27 7 c-20 5 -31 2 -40 -11 -7 -10 -13 -13 -13 -8 0 13 -44
34 -71 34 -12 0 -36 -15 -54 -33 -37 -37 -55 -102 -55 -196 0 -68 -19 -102
-47 -85 -16 10 -18 29 -21 148 l-3 137 -26 10 c-21 8 -30 7 -38 -4 -9 -13 -14
-12 -34 4 -29 24 -58 24 -97 0 -37 -22 -60 -77 -69 -163 -4 -34 -15 -71 -29
-90 -55 -82 -81 -23 -70 163 l7 119 53 0 c47 0 54 3 54 19 0 16 -10 21 -56 27
l-55 6 2 45 c2 30 -2 47 -11 53 -23 15 -57 12 -64 -6z m343 -232 c41 -76 4
-242 -54 -242 -8 0 -22 14 -31 31 -21 42 -16 164 9 202 20 31 61 36 76 9z
m335 -4 c32 -45 16 -187 -25 -224 -47 -42 -88 40 -71 144 15 94 61 131 96 80z
m593 -8 c19 -38 16 -128 -7 -178 -24 -52 -45 -62 -73 -33 -19 18 -22 33 -22
99 0 97 22 145 63 140 16 -2 31 -13 39 -28z m-572 -407 c-8 -68 -32 -98 -68
-89 -22 5 -27 12 -27 39 0 35 16 63 64 115 30 32 31 33 34 11 2 -12 1 -46 -3
-76z"/>
</g>
</svg>
